<mxfile host="app.diagrams.net" agent="Mozilla/5.0 (Windows NT 10.0; Win64; x64) AppleWebKit/537.36 (KHTML, like Gecko) Chrome/130.0.0.0 Safari/537.36 Edg/130.0.0.0" version="24.8.6">
  <diagram name="Page-1" id="upsdArOH7GlKlk4BVJuf">
    <mxGraphModel dx="1883" dy="1743" grid="1" gridSize="10" guides="1" tooltips="1" connect="1" arrows="1" fold="1" page="1" pageScale="1" pageWidth="2000" pageHeight="2000" math="0" shadow="0">
      <root>
        <mxCell id="0" />
        <mxCell id="1" parent="0" />
        <mxCell id="dStNwPK4B-hobUE02895-1" value="" style="shape=umlActor;verticalLabelPosition=bottom;verticalAlign=top;html=1;outlineConnect=0;" vertex="1" parent="1">
          <mxGeometry x="115" y="170" width="30" height="60" as="geometry" />
        </mxCell>
        <mxCell id="dStNwPK4B-hobUE02895-2" value="" style="endArrow=none;html=1;rounded=0;" edge="1" parent="1" target="dStNwPK4B-hobUE02895-1">
          <mxGeometry width="50" height="50" relative="1" as="geometry">
            <mxPoint x="130" y="800" as="sourcePoint" />
            <mxPoint x="125" y="270" as="targetPoint" />
          </mxGeometry>
        </mxCell>
        <mxCell id="dStNwPK4B-hobUE02895-3" value="&lt;font style=&quot;font-size: 50px;&quot;&gt;CONNEXION&lt;/font&gt;" style="text;html=1;align=center;verticalAlign=middle;resizable=0;points=[];autosize=1;strokeColor=none;fillColor=none;" vertex="1" parent="1">
          <mxGeometry x="550" y="50" width="330" height="70" as="geometry" />
        </mxCell>
        <mxCell id="dStNwPK4B-hobUE02895-4" value="Client Angular" style="rounded=0;whiteSpace=wrap;html=1;" vertex="1" parent="1">
          <mxGeometry x="400" y="170" width="120" height="60" as="geometry" />
        </mxCell>
        <mxCell id="dStNwPK4B-hobUE02895-5" value="API ASP .NET" style="rounded=0;whiteSpace=wrap;html=1;" vertex="1" parent="1">
          <mxGeometry x="760" y="170" width="120" height="60" as="geometry" />
        </mxCell>
        <mxCell id="dStNwPK4B-hobUE02895-6" value="Base de Données SQL Server" style="rounded=0;whiteSpace=wrap;html=1;" vertex="1" parent="1">
          <mxGeometry x="1120" y="170" width="120" height="60" as="geometry" />
        </mxCell>
        <mxCell id="dStNwPK4B-hobUE02895-7" value="" style="endArrow=none;html=1;rounded=0;entryX=0.5;entryY=1;entryDx=0;entryDy=0;" edge="1" parent="1" target="dStNwPK4B-hobUE02895-4">
          <mxGeometry width="50" height="50" relative="1" as="geometry">
            <mxPoint x="460" y="800" as="sourcePoint" />
            <mxPoint x="459.41" y="290" as="targetPoint" />
          </mxGeometry>
        </mxCell>
        <mxCell id="dStNwPK4B-hobUE02895-8" value="" style="endArrow=none;html=1;rounded=0;entryX=0.5;entryY=1;entryDx=0;entryDy=0;" edge="1" parent="1" target="dStNwPK4B-hobUE02895-5">
          <mxGeometry width="50" height="50" relative="1" as="geometry">
            <mxPoint x="819" y="800" as="sourcePoint" />
            <mxPoint x="819.41" y="310" as="targetPoint" />
          </mxGeometry>
        </mxCell>
        <mxCell id="dStNwPK4B-hobUE02895-9" value="" style="endArrow=none;html=1;rounded=0;entryX=0.5;entryY=1;entryDx=0;entryDy=0;" edge="1" parent="1" target="dStNwPK4B-hobUE02895-6">
          <mxGeometry width="50" height="50" relative="1" as="geometry">
            <mxPoint x="1180" y="800" as="sourcePoint" />
            <mxPoint x="1179.4099999999999" y="300" as="targetPoint" />
          </mxGeometry>
        </mxCell>
        <mxCell id="dStNwPK4B-hobUE02895-11" value="" style="endArrow=classic;html=1;rounded=0;" edge="1" parent="1">
          <mxGeometry width="50" height="50" relative="1" as="geometry">
            <mxPoint x="130" y="280" as="sourcePoint" />
            <mxPoint x="460" y="280" as="targetPoint" />
          </mxGeometry>
        </mxCell>
        <mxCell id="dStNwPK4B-hobUE02895-12" value="Saisit l&#39;identifiant&amp;nbsp;&lt;div&gt;et le mot de passe&lt;/div&gt;" style="text;html=1;align=center;verticalAlign=middle;resizable=0;points=[];autosize=1;strokeColor=none;fillColor=none;" vertex="1" parent="1">
          <mxGeometry x="225" y="259" width="120" height="40" as="geometry" />
        </mxCell>
        <mxCell id="dStNwPK4B-hobUE02895-13" value="" style="endArrow=classic;html=1;rounded=0;" edge="1" parent="1">
          <mxGeometry width="50" height="50" relative="1" as="geometry">
            <mxPoint x="460" y="309" as="sourcePoint" />
            <mxPoint x="820" y="310" as="targetPoint" />
          </mxGeometry>
        </mxCell>
        <mxCell id="dStNwPK4B-hobUE02895-14" value="POST /api/Auth/login {email, password}" style="text;html=1;align=center;verticalAlign=middle;resizable=0;points=[];autosize=1;strokeColor=none;fillColor=none;" vertex="1" parent="1">
          <mxGeometry x="520" y="280" width="230" height="30" as="geometry" />
        </mxCell>
        <mxCell id="dStNwPK4B-hobUE02895-15" value="" style="endArrow=classic;html=1;rounded=0;" edge="1" parent="1">
          <mxGeometry width="50" height="50" relative="1" as="geometry">
            <mxPoint x="820" y="340" as="sourcePoint" />
            <mxPoint x="1180" y="341" as="targetPoint" />
          </mxGeometry>
        </mxCell>
        <mxCell id="dStNwPK4B-hobUE02895-16" value="SELECT * FROM AspNetUsers WHERE email = email" style="text;html=1;align=center;verticalAlign=middle;resizable=0;points=[];autosize=1;strokeColor=none;fillColor=none;" vertex="1" parent="1">
          <mxGeometry x="843" y="313" width="310" height="30" as="geometry" />
        </mxCell>
        <mxCell id="dStNwPK4B-hobUE02895-17" value="" style="endArrow=classic;html=1;rounded=0;" edge="1" parent="1">
          <mxGeometry width="50" height="50" relative="1" as="geometry">
            <mxPoint x="1180" y="380" as="sourcePoint" />
            <mxPoint x="820" y="380" as="targetPoint" />
          </mxGeometry>
        </mxCell>
        <mxCell id="dStNwPK4B-hobUE02895-18" value="Résultat (utilisateur trouvé ou non)" style="text;html=1;align=center;verticalAlign=middle;resizable=0;points=[];autosize=1;strokeColor=none;fillColor=none;" vertex="1" parent="1">
          <mxGeometry x="893" y="355" width="210" height="30" as="geometry" />
        </mxCell>
        <mxCell id="dStNwPK4B-hobUE02895-19" value="" style="endArrow=classic;html=1;rounded=0;" edge="1" parent="1">
          <mxGeometry width="50" height="50" relative="1" as="geometry">
            <mxPoint x="820" y="410" as="sourcePoint" />
            <mxPoint x="460" y="410" as="targetPoint" />
          </mxGeometry>
        </mxCell>
        <mxCell id="dStNwPK4B-hobUE02895-20" value="Vérifie les identifiants" style="text;html=1;align=center;verticalAlign=middle;resizable=0;points=[];autosize=1;strokeColor=none;fillColor=none;" vertex="1" parent="1">
          <mxGeometry x="569" y="386" width="140" height="30" as="geometry" />
        </mxCell>
        <mxCell id="dStNwPK4B-hobUE02895-21" value="" style="rounded=0;whiteSpace=wrap;html=1;" vertex="1" parent="1">
          <mxGeometry x="70" y="430" width="120" height="60" as="geometry" />
        </mxCell>
        <mxCell id="dStNwPK4B-hobUE02895-22" value="alt:&amp;nbsp;&lt;div&gt;Authentification&lt;/div&gt;&lt;div&gt;&amp;nbsp;réussie&lt;/div&gt;" style="text;html=1;align=center;verticalAlign=middle;resizable=0;points=[];autosize=1;strokeColor=none;fillColor=none;" vertex="1" parent="1">
          <mxGeometry x="75" y="430" width="110" height="60" as="geometry" />
        </mxCell>
        <mxCell id="dStNwPK4B-hobUE02895-23" value="" style="endArrow=classic;html=1;rounded=0;" edge="1" parent="1">
          <mxGeometry width="50" height="50" relative="1" as="geometry">
            <mxPoint x="819" y="508" as="sourcePoint" />
            <mxPoint x="459" y="508" as="targetPoint" />
          </mxGeometry>
        </mxCell>
        <mxCell id="dStNwPK4B-hobUE02895-24" value="200 OK {token}" style="text;html=1;align=center;verticalAlign=middle;resizable=0;points=[];autosize=1;strokeColor=none;fillColor=none;" vertex="1" parent="1">
          <mxGeometry x="592" y="481" width="100" height="30" as="geometry" />
        </mxCell>
        <mxCell id="dStNwPK4B-hobUE02895-25" value="" style="endArrow=classic;html=1;rounded=0;" edge="1" parent="1">
          <mxGeometry width="50" height="50" relative="1" as="geometry">
            <mxPoint x="460" y="546" as="sourcePoint" />
            <mxPoint x="820" y="547" as="targetPoint" />
          </mxGeometry>
        </mxCell>
        <mxCell id="dStNwPK4B-hobUE02895-26" value="Stocke le token (cookie)" style="text;html=1;align=center;verticalAlign=middle;resizable=0;points=[];autosize=1;strokeColor=none;fillColor=none;" vertex="1" parent="1">
          <mxGeometry x="565" y="521" width="150" height="30" as="geometry" />
        </mxCell>
        <mxCell id="dStNwPK4B-hobUE02895-27" value="" style="endArrow=classic;html=1;rounded=0;" edge="1" parent="1">
          <mxGeometry width="50" height="50" relative="1" as="geometry">
            <mxPoint x="460" y="580" as="sourcePoint" />
            <mxPoint x="130" y="580" as="targetPoint" />
          </mxGeometry>
        </mxCell>
        <mxCell id="dStNwPK4B-hobUE02895-28" value="Redirige vers l&#39;accueil Arcadmin" style="text;html=1;align=center;verticalAlign=middle;resizable=0;points=[];autosize=1;strokeColor=none;fillColor=none;" vertex="1" parent="1">
          <mxGeometry x="203" y="555" width="190" height="30" as="geometry" />
        </mxCell>
        <mxCell id="dStNwPK4B-hobUE02895-31" value="else:&lt;div&gt;Échec de l&#39;authentification&lt;/div&gt;" style="rounded=0;whiteSpace=wrap;html=1;" vertex="1" parent="1">
          <mxGeometry x="70" y="617" width="120" height="60" as="geometry" />
        </mxCell>
        <mxCell id="dStNwPK4B-hobUE02895-32" value="" style="endArrow=classic;html=1;rounded=0;" edge="1" parent="1">
          <mxGeometry width="50" height="50" relative="1" as="geometry">
            <mxPoint x="819" y="704" as="sourcePoint" />
            <mxPoint x="459" y="704" as="targetPoint" />
          </mxGeometry>
        </mxCell>
        <mxCell id="dStNwPK4B-hobUE02895-33" value="401 Unauthorized" style="text;html=1;align=center;verticalAlign=middle;resizable=0;points=[];autosize=1;strokeColor=none;fillColor=none;" vertex="1" parent="1">
          <mxGeometry x="585" y="677" width="120" height="30" as="geometry" />
        </mxCell>
        <mxCell id="dStNwPK4B-hobUE02895-34" value="" style="endArrow=classic;html=1;rounded=0;" edge="1" parent="1">
          <mxGeometry width="50" height="50" relative="1" as="geometry">
            <mxPoint x="460" y="745" as="sourcePoint" />
            <mxPoint x="130" y="745" as="targetPoint" />
          </mxGeometry>
        </mxCell>
        <mxCell id="dStNwPK4B-hobUE02895-35" value="Notification d&#39;échec de l&#39;authentification" style="text;html=1;align=center;verticalAlign=middle;resizable=0;points=[];autosize=1;strokeColor=none;fillColor=none;" vertex="1" parent="1">
          <mxGeometry x="183" y="720" width="230" height="30" as="geometry" />
        </mxCell>
        <mxCell id="dStNwPK4B-hobUE02895-36" value="Personnel du Parc" style="text;html=1;align=center;verticalAlign=middle;resizable=0;points=[];autosize=1;strokeColor=none;fillColor=none;" vertex="1" parent="1">
          <mxGeometry x="70" y="128" width="120" height="30" as="geometry" />
        </mxCell>
      </root>
    </mxGraphModel>
  </diagram>
</mxfile>
